<svg xmlns="http://www.w3.org/2000/svg" width="32" height="32" viewBox="0 0 32 32">
  <path d="M16 0.5C7.438 0.5 0.5 7.438 0.5 16c0 2.75 0.719 5.438 2.094 7.781L0.5 31.5l7.938-2.063A15.43 15.43 0 0 0 16 31.5c8.563 0 15.5-6.938 15.5-15.5S24.563 0.5 16 0.5zm7.719 21.344c-.313.875-1.563 1.625-2.5 1.813-.656.125-1.5.219-4.375-0.938-3.688-1.469-6.063-5.188-6.25-5.438-.188-.25-1.563-2.063-1.563-3.938s1-2.688 1.375-3.063c.313-.313.688-.406.906-.406h.656c.219 0 .5-.063.781.594.313.688 1.063 2.563 1.156 2.75.094.188.156.406.031.656-.125.25-.188.406-.375.625-.188.219-.406.469-.563.625-.188.188-.375.406-.188.75.188.344.875 1.438 1.875 2.313 1.281 1.156 2.375 1.531 2.719 1.688.344.156.531.125.719-.063.188-.219.875-1.031 1.094-1.375.219-.344.438-.281.75-.156.313.125 2 .938 2.344 1.125.344.188.563.281.656.438.094.25.094 1.031-.219 1.906z"/>
</svg>
